<?xml version="1.0" standalone="no"?><!DOCTYPE svg PUBLIC "-//W3C//DTD SVG 1.1//EN"
        "http://www.w3.org/Graphics/SVG/1.1/DTD/svg11.dtd">
<svg t="1574869462646" class="icon" viewBox="0 0 1024 1024" version="1.1" xmlns="http://www.w3.org/2000/svg"
     p-id="12503" xmlns:xlink="http://www.w3.org/1999/xlink" width="200" height="200">
    <defs>
        <style type="text/css"></style>
    </defs>
    <path d="M338.65 63.559L63.901 355.503v604.453L943.694 63.559z" fill="#FF495C" p-id="12504"></path>
    <path d="M286.874 505.23a496.9 496.9 0 0 0 7.18 7.048L124.44 475.071 97.411 502.1l141.861 141.861 23.896-23.898-98.392-98.391a667.08 667.08 0 0 0-5.905-5.838l171.667 36.86 25.796-25.799-141.86-141.857-23.896 23.896 96.296 96.296zM347.778 413.562l48.373-48.374-22.064-22.063-48.373 48.374-36.7-36.701 52.215-52.215-22.15-22.15-76.287 76.286 141.861 141.862 79.343-79.343-22.063-22.063-55.272 55.271zM480.782 118.729l78.212 127.591-128.804-77.001-20.605 20.607 75.784 130.577-129.025-77.335-24.321 24.319 179.998 103.727 23.327-23.327L463.34 224.94l122.749 72.204 23.515-23.517L504.605 94.905z"
          fill="#FFFFFF" p-id="12505"></path>
</svg>
