<?xml version="1.0" standalone="no"?><!DOCTYPE svg PUBLIC "-//W3C//DTD SVG 1.1//EN"
        "http://www.w3.org/Graphics/SVG/1.1/DTD/svg11.dtd">
<svg t="1574602152823" class="icon" viewBox="0 0 1024 1024" version="1.1" xmlns="http://www.w3.org/2000/svg" p-id="5796"
     xmlns:xlink="http://www.w3.org/1999/xlink" width="200" height="200">
    <defs>
        <style type="text/css"></style>
    </defs>
    <path d="M512 512m-512 0a512 512 0 1 0 1024 0 512 512 0 1 0-1024 0Z" fill="#A5D06E" p-id="5797"></path>
    <path d="M844.08 250.312L748.736 302.16l-163.8 26.56-70.832 88.536-92.96-92.96-188.144-19.92-26.56 42.056-6.64 407.28-1.144 9.872 260.168 257.672c17.488 1.792 35.224 2.744 53.176 2.744 282.768 0 512-229.232 512-512 0-31.352-2.968-62-8.376-91.792L844.08 250.312z"
          fill="#90B753" p-id="5798"></path>
    <path d="M599.904 300.464C545.232 322.816 521.488 355.2 512 384.528c-9.488-29.328-33.232-61.712-87.92-84.064-84.736-34.632-200.672-40.312-245.096-45.232 0 0 99.264 345.304 333.016 199.6 233.736 145.704 333-199.6 333-199.6-44.424 4.92-160.36 10.6-245.096 45.232z m-150.328 123.36c-108.56 39.504-159.56-87.976-159.56-87.976 163.688-15.632 159.56 87.976 159.56 87.976z m124.832 0s-4.112-103.608 159.56-87.976c0 0-51 127.48-159.56 87.976z"
          fill="#FFFFFF" p-id="5799"></path>
    <path d="M207.216 768.768a14.312 14.312 0 0 1-14.312-14.312V348.184a14.32 14.32 0 1 1 28.64 0v406.272c0 7.904-6.4 14.312-14.328 14.312z"
          fill="#603A17" p-id="5800"></path>
</svg>
