<?xml version="1.0" standalone="no"?><!DOCTYPE svg PUBLIC "-//W3C//DTD SVG 1.1//EN"
        "http://www.w3.org/Graphics/SVG/1.1/DTD/svg11.dtd">
<svg t="1574679849672" class="icon" viewBox="0 0 1024 1024" version="1.1" xmlns="http://www.w3.org/2000/svg" p-id="5320"
     xmlns:xlink="http://www.w3.org/1999/xlink" width="200" height="200">
    <defs>
        <style type="text/css"></style>
    </defs>
    <path d="M200.7 864.7C93.9 776.1 25.8 642.4 25.8 492.8 25.8 226.2 242 10 508.6 10s482.8 216.2 482.8 482.8c0 149.6-68.1 283.4-174.9 371.9"
          fill="#D2EDF7" p-id="5321"></path>
    <path d="M603.7 864.7H413.5c-90.3 0-163.4-73.2-163.4-163.4V314.1c0-57.1 46.2-103.3 103.3-103.3h310.4c57.1 0 103.3 46.2 103.3 103.3v387.2c0 90.2-73.2 163.4-163.4 163.4z"
          fill="#83C6EF" p-id="5322"></path>
    <path d="M277.367 1008.383L381.482 715.64l18.844 6.702-104.115 292.742zM616.862 722.315l18.844-6.702 104.116 292.741-18.844 6.702z"
          fill="#2D416C" p-id="5323"></path>
    <path d="M306.2 947.2H711v20H306.2z" fill="#2D416C" p-id="5324"></path>
    <path d="M662.5 210.8H508.6v653.9h110.2c81.9 0 148.4-66.4 148.4-148.4V315.4c-0.1-57.8-46.9-104.6-104.7-104.6z"
          fill="#429BCF" p-id="5325"></path>
    <path d="M643.9 864.7H373.3c-68 0-123.2-55.2-123.2-123.2v-90.2h517v90.2c0 68-55.2 123.2-123.2 123.2z" fill="#2D416C"
          p-id="5326"></path>
    <path d="M767.1 318.6h-517v-3.9c0-57.4 46.5-103.9 103.9-103.9h309.2c57.4 0 103.9 46.5 103.9 103.9v3.9z"
          fill="#F9C85D" p-id="5327"></path>
    <path d="M662.5 210.8H508.6v107.8h258.5v-3.2c0-57.8-46.8-104.6-104.6-104.6z" fill="#FFB103" p-id="5328"></path>
    <path d="M338.9 729.5H402V758h-63.1zM615.3 729.5h63.1V758h-63.1z" fill="#DA3329" p-id="5329"></path>
    <path d="M370.4 729.5h31.5V758h-31.5z" fill="#C11B16" p-id="5330"></path>
    <path d="M646.8 729.5h31.5V758h-31.5z" fill="#C11B16" p-id="5331"></path>
</svg>
